<svg width="159" height="82" viewBox="0 0 159 82" fill="none" xmlns="http://www.w3.org/2000/svg">
<path d="M14.6097 42.778L14.0042 41.9822L14.6097 42.778ZM155.655 42.778L154.726 42.4088L155.655 42.778ZM122.908 7.1461C122.54 7.55768 122.575 8.18987 122.986 8.55814L129.693 14.5593C130.105 14.9275 130.737 14.8924 131.106 14.4808C131.474 14.0693 131.439 13.4371 131.027 13.0688L125.065 7.73445L130.399 1.77252C130.768 1.36093 130.733 0.72874 130.321 0.360479C129.909 -0.00778151 129.277 0.0273404 128.909 0.438926L122.908 7.1461ZM28.8328 79.1137C28.2051 79.1137 27.5812 79.1012 26.9617 79.0765L26.882 81.0749C27.528 81.1007 28.1786 81.1137 28.8328 81.1137V79.1137ZM23.2353 78.7749C21.9774 78.6201 20.748 78.4136 19.5552 78.1581L19.1362 80.1137C20.3883 80.382 21.6761 80.5981 22.9911 80.7599L23.2353 78.7749ZM15.9592 77.204C14.7479 76.8162 13.5917 76.3736 12.5005 75.88L11.6762 77.7022C12.8413 78.2293 14.0695 78.699 15.3494 79.1088L15.9592 77.204ZM9.26145 74.1425C8.19393 73.4654 7.22644 72.7299 6.37149 71.9422L5.01628 73.413C5.96744 74.2894 7.03166 75.0966 8.19021 75.8315L9.26145 74.1425ZM4.02543 69.2371C3.35416 68.2382 2.83987 67.1818 2.49761 66.074L0.58673 66.6644C0.990541 67.9714 1.59315 69.2034 2.3654 70.3526L4.02543 69.2371ZM2.00081 62.6176C2.01386 61.5034 2.18584 60.3359 2.53841 59.1181L0.617299 58.5619C0.217717 59.9421 0.0162369 61.2887 0.000942647 62.5942L2.00081 62.6176ZM3.90658 55.783C4.43867 54.7745 5.09043 53.7379 5.87184 52.6755L4.26073 51.4904C3.42609 52.6252 2.72023 53.7456 2.13771 54.8496L3.90658 55.783ZM8.22527 49.832C9.02395 48.9629 9.9073 48.0803 10.8797 47.1854L9.52535 45.7138C8.51505 46.6435 7.59187 47.5655 6.75265 48.4787L8.22527 49.832ZM13.713 44.75C14.1969 44.3599 14.6975 43.9678 15.2152 43.5739L14.0042 41.9822C13.4719 42.3871 12.9565 42.7908 12.4576 43.1932L13.713 44.75ZM15.2152 43.5739C15.7219 43.1883 16.2428 42.8255 16.7774 42.4844L15.7018 40.7983C15.1214 41.1685 14.5553 41.5629 14.0042 41.9822L15.2152 43.5739ZM20.1339 40.6998C21.2846 40.1964 22.4863 39.7701 23.736 39.4156L23.1902 37.4915C21.8593 37.8691 20.5717 38.3253 19.3324 38.8674L20.1339 40.6998ZM27.4948 38.5836C28.7401 38.3786 30.0238 38.2314 31.3432 38.1376L31.2014 36.1427C29.8261 36.2404 28.481 36.3943 27.17 36.6101L27.4948 38.5836ZM35.2375 38.0116C36.5159 38.016 37.8214 38.0624 39.1518 38.1472L39.279 36.1513C37.9121 36.0642 36.5663 36.0162 35.2445 36.0116L35.2375 38.0116ZM43.0675 38.4962C44.3424 38.6401 45.6361 38.8139 46.9469 39.0145L47.2495 37.0376C45.915 36.8333 44.5951 36.6559 43.2918 36.5088L43.0675 38.4962ZM50.8222 39.6744C52.0995 39.9125 53.39 40.1722 54.6922 40.4509L55.1108 38.4952C53.7929 38.2131 52.4849 37.9499 51.1887 37.7082L50.8222 39.6744ZM58.5546 41.3232C59.8221 41.6235 61.0985 41.9388 62.3824 42.2668L62.8774 40.329C61.5834 39.9985 60.2956 39.6803 59.0156 39.3771L58.5546 41.3232ZM66.2056 43.2732C67.474 43.6161 68.7479 43.969 70.026 44.3295L70.569 42.4047C69.2849 42.0424 68.0039 41.6876 66.7277 41.3425L66.2056 43.2732ZM73.8345 45.4213C75.0996 45.7891 76.3672 46.1622 77.6363 46.5386L78.2049 44.6211C76.9333 44.244 75.6622 43.8699 74.3929 43.5008L73.8345 45.4213ZM81.4393 47.6732C82.7067 48.053 83.9731 48.4336 85.2391 48.8135L85.8139 46.8978C84.5491 46.5183 83.2812 46.1373 82.0134 45.7574L81.4393 47.6732ZM89.0472 49.9527C90.3216 50.3321 91.5933 50.7085 92.8607 51.0794L93.4225 49.1599C92.1588 48.7901 90.8903 48.4147 89.618 48.0359L89.0472 49.9527ZM96.6751 52.1814C97.9604 52.5472 99.24 52.9052 100.512 53.2529L101.04 51.3237C99.775 50.978 98.5022 50.622 97.2226 50.2578L96.6751 52.1814ZM104.368 54.2794C105.667 54.6149 106.956 54.9371 108.235 55.2433L108.7 53.2983C107.435 52.9952 106.157 52.6759 104.869 52.343L104.368 54.2794ZM112.111 56.1276C113.436 56.4136 114.747 56.6789 116.042 56.9204L116.409 54.9543C115.134 54.7166 113.841 54.4551 112.533 54.1726L112.111 56.1276ZM120 57.5885C121.348 57.7907 122.676 57.962 123.983 58.0987L124.191 56.1096C122.917 55.9763 121.618 55.8088 120.297 55.6107L120 57.5885ZM127.993 58.409C129.367 58.4749 130.713 58.4946 132.027 58.463L131.979 56.4636C130.717 56.4939 129.42 56.4751 128.088 56.4112L127.993 58.409ZM136.074 58.1853C137.459 58.0229 138.802 57.7896 140.097 57.4776L139.629 55.5332C138.418 55.8247 137.155 56.0448 135.841 56.199L136.074 58.1853ZM144.017 56.2256C145.308 55.6991 146.536 55.0707 147.695 54.3308L146.619 52.6449C145.568 53.3161 144.447 53.89 143.261 54.3738L144.017 56.2256ZM150.956 51.7676C151.932 50.8313 152.832 49.7862 153.653 48.6261L152.021 47.4709C151.271 48.5297 150.453 49.4781 149.571 50.3248L150.956 51.7676ZM155.737 45.0762C156.037 44.4573 156.319 43.8144 156.584 43.1472L154.726 42.4088C154.478 43.0326 154.215 43.6309 153.937 44.2048L155.737 45.0762ZM156.584 43.1472C156.852 42.474 157.094 41.811 157.312 41.1581L155.415 40.5245C155.209 41.1409 154.98 41.769 154.726 42.4088L156.584 43.1472ZM158.392 37.0746C158.673 35.6106 158.823 34.2037 158.854 32.8526L156.854 32.8072C156.826 34.0412 156.689 35.3373 156.428 36.698L158.392 37.0746ZM158.533 28.5823C158.272 27.1251 157.86 25.7509 157.32 24.4573L155.475 25.2276C155.959 26.3888 156.329 27.6231 156.564 28.935L158.533 28.5823ZM155.254 20.6951C154.439 19.5202 153.513 18.4337 152.502 17.431L151.094 18.8512C152.026 19.7753 152.871 20.7687 153.61 21.8344L155.254 20.6951ZM149.269 14.6904C148.134 13.8631 146.941 13.1108 145.714 12.4291L144.743 14.1775C145.905 14.8233 147.028 15.532 148.09 16.3063L149.269 14.6904ZM141.946 10.5887C140.647 10.0327 139.334 9.54421 138.032 9.11912L137.411 11.0204C138.661 11.4284 139.918 11.8962 141.159 12.4273L141.946 10.5887ZM134.01 7.98937C132.59 7.65291 131.212 7.39123 129.911 7.19894L129.618 9.17746C130.863 9.36133 132.184 9.61218 133.549 9.9355L134.01 7.98937ZM125.726 6.80072C124.959 6.77369 124.245 6.77847 123.598 6.81443L123.709 8.81135C124.286 8.77927 124.939 8.77423 125.656 8.79948L125.726 6.80072Z" fill="#36C143"/>
</svg>
