<svg width="218" height="43" viewBox="0 0 218 43" fill="none" xmlns="http://www.w3.org/2000/svg">
<g filter="url(#filter0_ii_322_431)">
<rect x="6" y="4" width="212" height="33" rx="16.5" fill="white"/>
</g>
<g filter="url(#filter1_ddi_322_431)">
<rect x="6" y="4" width="106" height="33" rx="16.5" fill="#62B3FF"/>
</g>
<path d="M41.1449 26V16.5455H42.2898V24.9844H46.6847V26H41.1449ZM51.1903 26.1477C50.5502 26.1477 49.9885 25.9954 49.5053 25.6907C49.0252 25.386 48.6497 24.9598 48.3789 24.4119C48.1112 23.8641 47.9773 23.224 47.9773 22.4915C47.9773 21.7528 48.1112 21.1081 48.3789 20.5572C48.6497 20.0063 49.0252 19.5785 49.5053 19.2738C49.9885 18.9691 50.5502 18.8168 51.1903 18.8168C51.8305 18.8168 52.3906 18.9691 52.8707 19.2738C53.3539 19.5785 53.7294 20.0063 53.9972 20.5572C54.268 21.1081 54.4034 21.7528 54.4034 22.4915C54.4034 23.224 54.268 23.8641 53.9972 24.4119C53.7294 24.9598 53.3539 25.386 52.8707 25.6907C52.3906 25.9954 51.8305 26.1477 51.1903 26.1477ZM51.1903 25.169C51.6766 25.169 52.0767 25.0444 52.3906 24.7951C52.7045 24.5458 52.9369 24.218 53.0877 23.8118C53.2385 23.4055 53.3139 22.9654 53.3139 22.4915C53.3139 22.0175 53.2385 21.5759 53.0877 21.1665C52.9369 20.7572 52.7045 20.4264 52.3906 20.174C52.0767 19.9216 51.6766 19.7955 51.1903 19.7955C50.7041 19.7955 50.304 19.9216 49.9901 20.174C49.6761 20.4264 49.4438 20.7572 49.293 21.1665C49.1422 21.5759 49.0668 22.0175 49.0668 22.4915C49.0668 22.9654 49.1422 23.4055 49.293 23.8118C49.4438 24.218 49.6761 24.5458 49.9901 24.7951C50.304 25.0444 50.7041 25.169 51.1903 25.169ZM58.9287 28.8068C58.4024 28.8068 57.95 28.7391 57.5715 28.6037C57.1929 28.4714 56.8775 28.2959 56.6251 28.0774C56.3758 27.862 56.1773 27.6312 56.0296 27.3849L56.8975 26.7756C56.9959 26.9048 57.1206 27.0526 57.2714 27.2188C57.4222 27.388 57.6284 27.5342 57.89 27.6573C58.1547 27.7835 58.5009 27.8466 58.9287 27.8466C59.5012 27.8466 59.9736 27.7081 60.346 27.4311C60.7184 27.1541 60.9046 26.7202 60.9046 26.1293V24.6889H60.8122C60.7322 24.8182 60.6183 24.9782 60.4706 25.169C60.326 25.3568 60.1167 25.5245 59.8428 25.6722C59.5719 25.8169 59.2057 25.8892 58.7441 25.8892C58.1716 25.8892 57.6576 25.7538 57.2021 25.483C56.7497 25.2121 56.3912 24.8182 56.1265 24.3011C55.8649 23.7841 55.7341 23.1562 55.7341 22.4176C55.7341 21.6913 55.8618 21.0588 56.1173 20.5202C56.3727 19.9786 56.7282 19.56 57.1837 19.2646C57.6392 18.966 58.1655 18.8168 58.7625 18.8168C59.2242 18.8168 59.5904 18.8937 59.8612 19.0476C60.1352 19.1984 60.3444 19.3707 60.4891 19.5646C60.6368 19.7554 60.7507 19.9124 60.8307 20.0355H60.9415V18.9091H61.9941V26.2031C61.9941 26.8125 61.8556 27.308 61.5786 27.6896C61.3047 28.0743 60.9353 28.3559 60.4706 28.5344C60.009 28.716 59.495 28.8068 58.9287 28.8068ZM58.8918 24.9105C59.3288 24.9105 59.6981 24.8105 59.9997 24.6104C60.3013 24.4104 60.5306 24.1226 60.6876 23.7472C60.8445 23.3717 60.923 22.9223 60.923 22.3991C60.923 21.8883 60.8461 21.4374 60.6922 21.0465C60.5383 20.6557 60.3106 20.3494 60.009 20.1278C59.7074 19.9062 59.335 19.7955 58.8918 19.7955C58.4301 19.7955 58.0454 19.9124 57.7377 20.1463C57.433 20.3802 57.2037 20.6941 57.0498 21.0881C56.899 21.482 56.8236 21.919 56.8236 22.3991C56.8236 22.8916 56.9005 23.3271 57.0544 23.7056C57.2114 24.0811 57.4422 24.3765 57.7469 24.592C58.0547 24.8043 58.4363 24.9105 58.8918 24.9105ZM68.9372 16.5455V26H67.7923V16.5455H68.9372ZM72.1745 21.7344V26H71.085V18.9091H72.1376V20.017H72.2299C72.3961 19.657 72.6485 19.3677 72.987 19.1491C73.3256 18.9276 73.7626 18.8168 74.2981 18.8168C74.7782 18.8168 75.1983 18.9152 75.5584 19.1122C75.9185 19.3061 76.1986 19.6016 76.3986 19.9986C76.5987 20.3925 76.6987 20.8911 76.6987 21.4943V26H75.6092V21.5682C75.6092 21.0111 75.4645 20.5772 75.1752 20.2663C74.8859 19.9524 74.4889 19.7955 73.9842 19.7955C73.6364 19.7955 73.3256 19.8709 73.0517 20.0217C72.7808 20.1725 72.5669 20.3925 72.41 20.6818C72.253 20.9711 72.1745 21.322 72.1745 21.7344Z" fill="white"/>
<path d="M148.315 18.9091C148.26 18.4413 148.035 18.0781 147.641 17.8196C147.247 17.5611 146.764 17.4318 146.192 17.4318C145.773 17.4318 145.407 17.4995 145.093 17.6349C144.782 17.7704 144.539 17.9566 144.364 18.1935C144.191 18.4305 144.105 18.6998 144.105 19.0014C144.105 19.2538 144.165 19.4708 144.285 19.6523C144.408 19.8308 144.565 19.9801 144.756 20.1001C144.947 20.2171 145.147 20.314 145.356 20.391C145.565 20.4648 145.758 20.5249 145.933 20.571L146.893 20.8295C147.14 20.8942 147.414 20.9834 147.715 21.0973C148.02 21.2112 148.311 21.3666 148.588 21.5636C148.868 21.7575 149.099 22.0067 149.28 22.3114C149.462 22.6161 149.553 22.9901 149.553 23.4332C149.553 23.9441 149.419 24.4058 149.151 24.8182C148.886 25.2306 148.498 25.5584 147.988 25.8015C147.48 26.0446 146.863 26.1662 146.136 26.1662C145.459 26.1662 144.873 26.0569 144.377 25.8384C143.885 25.6199 143.497 25.3152 143.214 24.9244C142.934 24.5335 142.776 24.0795 142.739 23.5625H143.92C143.951 23.9195 144.071 24.215 144.281 24.4489C144.493 24.6797 144.761 24.852 145.084 24.9659C145.41 25.0767 145.761 25.1321 146.136 25.1321C146.573 25.1321 146.966 25.0613 147.314 24.9197C147.661 24.7751 147.937 24.575 148.14 24.3196C148.343 24.0611 148.445 23.7595 148.445 23.4148C148.445 23.1009 148.357 22.8454 148.181 22.6484C148.006 22.4515 147.775 22.2914 147.489 22.1683C147.203 22.0452 146.893 21.9375 146.561 21.8452L145.398 21.5128C144.659 21.3004 144.074 20.9973 143.643 20.6033C143.213 20.2094 142.997 19.6939 142.997 19.0568C142.997 18.5275 143.14 18.0658 143.426 17.6719C143.716 17.2749 144.104 16.9671 144.59 16.7486C145.079 16.527 145.625 16.4162 146.229 16.4162C146.838 16.4162 147.38 16.5254 147.854 16.744C148.328 16.9594 148.703 17.2549 148.98 17.6303C149.26 18.0058 149.408 18.4321 149.423 18.9091H148.315ZM151.287 26V18.9091H152.377V26H151.287ZM151.841 17.7273C151.629 17.7273 151.446 17.6549 151.292 17.5103C151.141 17.3656 151.066 17.1918 151.066 16.9886C151.066 16.7855 151.141 16.6116 151.292 16.467C151.446 16.3223 151.629 16.25 151.841 16.25C152.054 16.25 152.235 16.3223 152.386 16.467C152.54 16.6116 152.617 16.7855 152.617 16.9886C152.617 17.1918 152.54 17.3656 152.386 17.5103C152.235 17.6549 152.054 17.7273 151.841 17.7273ZM157.234 28.8068C156.708 28.8068 156.256 28.7391 155.877 28.6037C155.499 28.4714 155.183 28.2959 154.931 28.0774C154.681 27.862 154.483 27.6312 154.335 27.3849L155.203 26.7756C155.302 26.9048 155.426 27.0526 155.577 27.2188C155.728 27.388 155.934 27.5342 156.196 27.6573C156.46 27.7835 156.807 27.8466 157.234 27.8466C157.807 27.8466 158.279 27.7081 158.652 27.4311C159.024 27.1541 159.21 26.7202 159.21 26.1293V24.6889H159.118C159.038 24.8182 158.924 24.9782 158.776 25.169C158.632 25.3568 158.422 25.5245 158.148 25.6722C157.878 25.8169 157.511 25.8892 157.05 25.8892C156.477 25.8892 155.963 25.7538 155.508 25.483C155.055 25.2121 154.697 24.8182 154.432 24.3011C154.171 23.7841 154.04 23.1562 154.04 22.4176C154.04 21.6913 154.167 21.0588 154.423 20.5202C154.678 19.9786 155.034 19.56 155.489 19.2646C155.945 18.966 156.471 18.8168 157.068 18.8168C157.53 18.8168 157.896 18.8937 158.167 19.0476C158.441 19.1984 158.65 19.3707 158.795 19.5646C158.942 19.7554 159.056 19.9124 159.136 20.0355H159.247V18.9091H160.3V26.2031C160.3 26.8125 160.161 27.308 159.884 27.6896C159.61 28.0743 159.241 28.3559 158.776 28.5344C158.315 28.716 157.801 28.8068 157.234 28.8068ZM157.197 24.9105C157.634 24.9105 158.004 24.8105 158.305 24.6104C158.607 24.4104 158.836 24.1226 158.993 23.7472C159.15 23.3717 159.229 22.9223 159.229 22.3991C159.229 21.8883 159.152 21.4374 158.998 21.0465C158.844 20.6557 158.616 20.3494 158.315 20.1278C158.013 19.9062 157.641 19.7955 157.197 19.7955C156.736 19.7955 156.351 19.9124 156.043 20.1463C155.739 20.3802 155.509 20.6941 155.355 21.0881C155.205 21.482 155.129 21.919 155.129 22.3991C155.129 22.8916 155.206 23.3271 155.36 23.7056C155.517 24.0811 155.748 24.3765 156.053 24.592C156.36 24.8043 156.742 24.9105 157.197 24.9105ZM163.384 21.7344V26H162.294V18.9091H163.347V20.017H163.439C163.605 19.657 163.857 19.3677 164.196 19.1491C164.535 18.9276 164.972 18.8168 165.507 18.8168C165.987 18.8168 166.407 18.9152 166.767 19.1122C167.127 19.3061 167.408 19.6016 167.608 19.9986C167.808 20.3925 167.908 20.8911 167.908 21.4943V26H166.818V21.5682C166.818 21.0111 166.674 20.5772 166.384 20.2663C166.095 19.9524 165.698 19.7955 165.193 19.7955C164.845 19.7955 164.535 19.8709 164.261 20.0217C163.99 20.1725 163.776 20.3925 163.619 20.6818C163.462 20.9711 163.384 21.322 163.384 21.7344ZM179.907 16.5455H181.052V22.8054C181.052 23.4517 180.9 24.0288 180.595 24.5366C180.293 25.0413 179.867 25.4399 179.316 25.7322C178.765 26.0215 178.119 26.1662 177.377 26.1662C176.636 26.1662 175.989 26.0215 175.438 25.7322C174.887 25.4399 174.46 25.0413 174.155 24.5366C173.853 24.0288 173.703 23.4517 173.703 22.8054V16.5455H174.847V22.7131C174.847 23.1747 174.949 23.5856 175.152 23.9457C175.355 24.3027 175.645 24.5843 176.02 24.7905C176.399 24.9936 176.851 25.0952 177.377 25.0952C177.903 25.0952 178.356 24.9936 178.734 24.7905C179.113 24.5843 179.402 24.3027 179.602 23.9457C179.805 23.5856 179.907 23.1747 179.907 22.7131V16.5455ZM183.191 28.6591V18.9091H184.243V20.0355H184.372C184.452 19.9124 184.563 19.7554 184.705 19.5646C184.849 19.3707 185.056 19.1984 185.323 19.0476C185.594 18.8937 185.96 18.8168 186.422 18.8168C187.019 18.8168 187.545 18.966 188.001 19.2646C188.456 19.5631 188.812 19.9863 189.067 20.5341C189.323 21.0819 189.45 21.7282 189.45 22.473C189.45 23.224 189.323 23.8749 189.067 24.4258C188.812 24.9736 188.458 25.3983 188.006 25.6999C187.553 25.9985 187.031 26.1477 186.441 26.1477C185.985 26.1477 185.62 26.0723 185.346 25.9215C185.073 25.7676 184.862 25.5937 184.714 25.3999C184.566 25.2029 184.452 25.0398 184.372 24.9105H184.28V28.6591H183.191ZM184.262 22.4545C184.262 22.9901 184.34 23.4625 184.497 23.8718C184.654 24.2781 184.883 24.5966 185.185 24.8274C185.486 25.0552 185.856 25.169 186.293 25.169C186.748 25.169 187.128 25.049 187.433 24.8089C187.741 24.5658 187.972 24.2396 188.126 23.8303C188.282 23.4179 188.361 22.9593 188.361 22.4545C188.361 21.956 188.284 21.5066 188.13 21.1065C187.979 20.7034 187.75 20.3848 187.442 20.1509C187.138 19.9139 186.754 19.7955 186.293 19.7955C185.85 19.7955 185.477 19.9078 185.176 20.1325C184.874 20.354 184.646 20.6649 184.492 21.065C184.338 21.462 184.262 21.9252 184.262 22.4545Z" fill="#62B3FF"/>
<defs>
<filter id="filter0_ii_322_431" x="4" y="0" width="218" height="39" filterUnits="userSpaceOnUse" color-interpolation-filters="sRGB">
<feFlood flood-opacity="0" result="BackgroundImageFix"/>
<feBlend mode="normal" in="SourceGraphic" in2="BackgroundImageFix" result="shape"/>
<feColorMatrix in="SourceAlpha" type="matrix" values="0 0 0 0 0 0 0 0 0 0 0 0 0 0 0 0 0 0 127 0" result="hardAlpha"/>
<feOffset dx="-2" dy="2"/>
<feGaussianBlur stdDeviation="2"/>
<feComposite in2="hardAlpha" operator="arithmetic" k2="-1" k3="1"/>
<feColorMatrix type="matrix" values="0 0 0 0 0 0 0 0 0 0 0 0 0 0 0 0 0 0 0.5 0"/>
<feBlend mode="normal" in2="shape" result="effect1_innerShadow_322_431"/>
<feColorMatrix in="SourceAlpha" type="matrix" values="0 0 0 0 0 0 0 0 0 0 0 0 0 0 0 0 0 0 127 0" result="hardAlpha"/>
<feOffset dx="4" dy="-4"/>
<feGaussianBlur stdDeviation="2"/>
<feComposite in2="hardAlpha" operator="arithmetic" k2="-1" k3="1"/>
<feColorMatrix type="matrix" values="0 0 0 0 0 0 0 0 0 0 0 0 0 0 0 0 0 0 0.25 0"/>
<feBlend mode="normal" in2="effect1_innerShadow_322_431" result="effect2_innerShadow_322_431"/>
</filter>
<filter id="filter1_ddi_322_431" x="0" y="0" width="118" height="43" filterUnits="userSpaceOnUse" color-interpolation-filters="sRGB">
<feFlood flood-opacity="0" result="BackgroundImageFix"/>
<feColorMatrix in="SourceAlpha" type="matrix" values="0 0 0 0 0 0 0 0 0 0 0 0 0 0 0 0 0 0 127 0" result="hardAlpha"/>
<feOffset dx="2"/>
<feGaussianBlur stdDeviation="2"/>
<feComposite in2="hardAlpha" operator="out"/>
<feColorMatrix type="matrix" values="0 0 0 0 0 0 0 0 0 0 0 0 0 0 0 0 0 0 0.25 0"/>
<feBlend mode="normal" in2="BackgroundImageFix" result="effect1_dropShadow_322_431"/>
<feColorMatrix in="SourceAlpha" type="matrix" values="0 0 0 0 0 0 0 0 0 0 0 0 0 0 0 0 0 0 127 0" result="hardAlpha"/>
<feOffset dx="-2" dy="2"/>
<feGaussianBlur stdDeviation="2"/>
<feComposite in2="hardAlpha" operator="out"/>
<feColorMatrix type="matrix" values="0 0 0 0 0 0 0 0 0 0 0 0 0 0 0 0 0 0 0.5 0"/>
<feBlend mode="normal" in2="effect1_dropShadow_322_431" result="effect2_dropShadow_322_431"/>
<feBlend mode="normal" in="SourceGraphic" in2="effect2_dropShadow_322_431" result="shape"/>
<feColorMatrix in="SourceAlpha" type="matrix" values="0 0 0 0 0 0 0 0 0 0 0 0 0 0 0 0 0 0 127 0" result="hardAlpha"/>
<feOffset dx="-2" dy="-2"/>
<feGaussianBlur stdDeviation="2"/>
<feComposite in2="hardAlpha" operator="arithmetic" k2="-1" k3="1"/>
<feColorMatrix type="matrix" values="0 0 0 0 0 0 0 0 0 0 0 0 0 0 0 0 0 0 0.25 0"/>
<feBlend mode="normal" in2="shape" result="effect3_innerShadow_322_431"/>
</filter>
</defs>
</svg>
