<svg width="218" height="43" viewBox="0 0 218 43" fill="none" xmlns="http://www.w3.org/2000/svg">
<g filter="url(#filter0_ii_322_432)">
<rect y="4" width="212" height="33" rx="16.5" fill="white"/>
</g>
<g filter="url(#filter1_ddi_322_432)">
<rect x="106" y="4" width="106" height="33" rx="16.5" fill="#62B3FF"/>
</g>
<path d="M35.1449 26V16.5455H36.2898V24.9844H40.6847V26H35.1449ZM45.1903 26.1477C44.5502 26.1477 43.9885 25.9954 43.5053 25.6907C43.0252 25.386 42.6497 24.9598 42.3789 24.4119C42.1112 23.8641 41.9773 23.224 41.9773 22.4915C41.9773 21.7528 42.1112 21.1081 42.3789 20.5572C42.6497 20.0063 43.0252 19.5785 43.5053 19.2738C43.9885 18.9691 44.5502 18.8168 45.1903 18.8168C45.8305 18.8168 46.3906 18.9691 46.8707 19.2738C47.3539 19.5785 47.7294 20.0063 47.9972 20.5572C48.268 21.1081 48.4034 21.7528 48.4034 22.4915C48.4034 23.224 48.268 23.8641 47.9972 24.4119C47.7294 24.9598 47.3539 25.386 46.8707 25.6907C46.3906 25.9954 45.8305 26.1477 45.1903 26.1477ZM45.1903 25.169C45.6766 25.169 46.0767 25.0444 46.3906 24.7951C46.7045 24.5458 46.9369 24.218 47.0877 23.8118C47.2385 23.4055 47.3139 22.9654 47.3139 22.4915C47.3139 22.0175 47.2385 21.5759 47.0877 21.1665C46.9369 20.7572 46.7045 20.4264 46.3906 20.174C46.0767 19.9216 45.6766 19.7955 45.1903 19.7955C44.7041 19.7955 44.304 19.9216 43.9901 20.174C43.6761 20.4264 43.4438 20.7572 43.293 21.1665C43.1422 21.5759 43.0668 22.0175 43.0668 22.4915C43.0668 22.9654 43.1422 23.4055 43.293 23.8118C43.4438 24.218 43.6761 24.5458 43.9901 24.7951C44.304 25.0444 44.7041 25.169 45.1903 25.169ZM52.9287 28.8068C52.4024 28.8068 51.95 28.7391 51.5715 28.6037C51.1929 28.4714 50.8775 28.2959 50.6251 28.0774C50.3758 27.862 50.1773 27.6312 50.0296 27.3849L50.8975 26.7756C50.9959 26.9048 51.1206 27.0526 51.2714 27.2188C51.4222 27.388 51.6284 27.5342 51.89 27.6573C52.1547 27.7835 52.5009 27.8466 52.9287 27.8466C53.5012 27.8466 53.9736 27.7081 54.346 27.4311C54.7184 27.1541 54.9046 26.7202 54.9046 26.1293V24.6889H54.8122C54.7322 24.8182 54.6183 24.9782 54.4706 25.169C54.326 25.3568 54.1167 25.5245 53.8428 25.6722C53.5719 25.8169 53.2057 25.8892 52.7441 25.8892C52.1716 25.8892 51.6576 25.7538 51.2021 25.483C50.7497 25.2121 50.3912 24.8182 50.1265 24.3011C49.8649 23.7841 49.7341 23.1562 49.7341 22.4176C49.7341 21.6913 49.8618 21.0588 50.1173 20.5202C50.3727 19.9786 50.7282 19.56 51.1837 19.2646C51.6392 18.966 52.1655 18.8168 52.7625 18.8168C53.2242 18.8168 53.5904 18.8937 53.8612 19.0476C54.1352 19.1984 54.3444 19.3707 54.4891 19.5646C54.6368 19.7554 54.7507 19.9124 54.8307 20.0355H54.9415V18.9091H55.9941V26.2031C55.9941 26.8125 55.8556 27.308 55.5786 27.6896C55.3047 28.0743 54.9353 28.3559 54.4706 28.5344C54.009 28.716 53.495 28.8068 52.9287 28.8068ZM52.8918 24.9105C53.3288 24.9105 53.6981 24.8105 53.9997 24.6104C54.3013 24.4104 54.5306 24.1226 54.6876 23.7472C54.8445 23.3717 54.923 22.9223 54.923 22.3991C54.923 21.8883 54.8461 21.4374 54.6922 21.0465C54.5383 20.6557 54.3106 20.3494 54.009 20.1278C53.7074 19.9062 53.335 19.7955 52.8918 19.7955C52.4301 19.7955 52.0454 19.9124 51.7377 20.1463C51.433 20.3802 51.2037 20.6941 51.0498 21.0881C50.899 21.482 50.8236 21.919 50.8236 22.3991C50.8236 22.8916 50.9005 23.3271 51.0544 23.7056C51.2114 24.0811 51.4422 24.3765 51.7469 24.592C52.0547 24.8043 52.4363 24.9105 52.8918 24.9105ZM62.9372 16.5455V26H61.7923V16.5455H62.9372ZM66.1745 21.7344V26H65.085V18.9091H66.1376V20.017H66.2299C66.3961 19.657 66.6485 19.3677 66.987 19.1491C67.3256 18.9276 67.7626 18.8168 68.2981 18.8168C68.7782 18.8168 69.1983 18.9152 69.5584 19.1122C69.9185 19.3061 70.1986 19.6016 70.3986 19.9986C70.5987 20.3925 70.6987 20.8911 70.6987 21.4943V26H69.6092V21.5682C69.6092 21.0111 69.4645 20.5772 69.1752 20.2663C68.8859 19.9524 68.4889 19.7955 67.9842 19.7955C67.6364 19.7955 67.3256 19.8709 67.0517 20.0217C66.7808 20.1725 66.5669 20.3925 66.41 20.6818C66.253 20.9711 66.1745 21.322 66.1745 21.7344Z" fill="#62B3FF"/>
<path d="M142.315 18.9091C142.26 18.4413 142.035 18.0781 141.641 17.8196C141.247 17.5611 140.764 17.4318 140.192 17.4318C139.773 17.4318 139.407 17.4995 139.093 17.6349C138.782 17.7704 138.539 17.9566 138.364 18.1935C138.191 18.4305 138.105 18.6998 138.105 19.0014C138.105 19.2538 138.165 19.4708 138.285 19.6523C138.408 19.8308 138.565 19.9801 138.756 20.1001C138.947 20.2171 139.147 20.314 139.356 20.391C139.565 20.4648 139.758 20.5249 139.933 20.571L140.893 20.8295C141.14 20.8942 141.414 20.9834 141.715 21.0973C142.02 21.2112 142.311 21.3666 142.588 21.5636C142.868 21.7575 143.099 22.0067 143.28 22.3114C143.462 22.6161 143.553 22.9901 143.553 23.4332C143.553 23.9441 143.419 24.4058 143.151 24.8182C142.886 25.2306 142.498 25.5584 141.988 25.8015C141.48 26.0446 140.863 26.1662 140.136 26.1662C139.459 26.1662 138.873 26.0569 138.377 25.8384C137.885 25.6199 137.497 25.3152 137.214 24.9244C136.934 24.5335 136.776 24.0795 136.739 23.5625H137.92C137.951 23.9195 138.071 24.215 138.281 24.4489C138.493 24.6797 138.761 24.852 139.084 24.9659C139.41 25.0767 139.761 25.1321 140.136 25.1321C140.573 25.1321 140.966 25.0613 141.314 24.9197C141.661 24.7751 141.937 24.575 142.14 24.3196C142.343 24.0611 142.445 23.7595 142.445 23.4148C142.445 23.1009 142.357 22.8454 142.181 22.6484C142.006 22.4515 141.775 22.2914 141.489 22.1683C141.203 22.0452 140.893 21.9375 140.561 21.8452L139.398 21.5128C138.659 21.3004 138.074 20.9973 137.643 20.6033C137.213 20.2094 136.997 19.6939 136.997 19.0568C136.997 18.5275 137.14 18.0658 137.426 17.6719C137.716 17.2749 138.104 16.9671 138.59 16.7486C139.079 16.527 139.625 16.4162 140.229 16.4162C140.838 16.4162 141.38 16.5254 141.854 16.744C142.328 16.9594 142.703 17.2549 142.98 17.6303C143.26 18.0058 143.408 18.4321 143.423 18.9091H142.315ZM145.287 26V18.9091H146.377V26H145.287ZM145.841 17.7273C145.629 17.7273 145.446 17.6549 145.292 17.5103C145.141 17.3656 145.066 17.1918 145.066 16.9886C145.066 16.7855 145.141 16.6116 145.292 16.467C145.446 16.3223 145.629 16.25 145.841 16.25C146.054 16.25 146.235 16.3223 146.386 16.467C146.54 16.6116 146.617 16.7855 146.617 16.9886C146.617 17.1918 146.54 17.3656 146.386 17.5103C146.235 17.6549 146.054 17.7273 145.841 17.7273ZM151.234 28.8068C150.708 28.8068 150.256 28.7391 149.877 28.6037C149.499 28.4714 149.183 28.2959 148.931 28.0774C148.681 27.862 148.483 27.6312 148.335 27.3849L149.203 26.7756C149.302 26.9048 149.426 27.0526 149.577 27.2188C149.728 27.388 149.934 27.5342 150.196 27.6573C150.46 27.7835 150.807 27.8466 151.234 27.8466C151.807 27.8466 152.279 27.7081 152.652 27.4311C153.024 27.1541 153.21 26.7202 153.21 26.1293V24.6889H153.118C153.038 24.8182 152.924 24.9782 152.776 25.169C152.632 25.3568 152.422 25.5245 152.148 25.6722C151.878 25.8169 151.511 25.8892 151.05 25.8892C150.477 25.8892 149.963 25.7538 149.508 25.483C149.055 25.2121 148.697 24.8182 148.432 24.3011C148.171 23.7841 148.04 23.1562 148.04 22.4176C148.04 21.6913 148.167 21.0588 148.423 20.5202C148.678 19.9786 149.034 19.56 149.489 19.2646C149.945 18.966 150.471 18.8168 151.068 18.8168C151.53 18.8168 151.896 18.8937 152.167 19.0476C152.441 19.1984 152.65 19.3707 152.795 19.5646C152.942 19.7554 153.056 19.9124 153.136 20.0355H153.247V18.9091H154.3V26.2031C154.3 26.8125 154.161 27.308 153.884 27.6896C153.61 28.0743 153.241 28.3559 152.776 28.5344C152.315 28.716 151.801 28.8068 151.234 28.8068ZM151.197 24.9105C151.634 24.9105 152.004 24.8105 152.305 24.6104C152.607 24.4104 152.836 24.1226 152.993 23.7472C153.15 23.3717 153.229 22.9223 153.229 22.3991C153.229 21.8883 153.152 21.4374 152.998 21.0465C152.844 20.6557 152.616 20.3494 152.315 20.1278C152.013 19.9062 151.641 19.7955 151.197 19.7955C150.736 19.7955 150.351 19.9124 150.043 20.1463C149.739 20.3802 149.509 20.6941 149.355 21.0881C149.205 21.482 149.129 21.919 149.129 22.3991C149.129 22.8916 149.206 23.3271 149.36 23.7056C149.517 24.0811 149.748 24.3765 150.053 24.592C150.36 24.8043 150.742 24.9105 151.197 24.9105ZM157.384 21.7344V26H156.294V18.9091H157.347V20.017H157.439C157.605 19.657 157.857 19.3677 158.196 19.1491C158.535 18.9276 158.972 18.8168 159.507 18.8168C159.987 18.8168 160.407 18.9152 160.767 19.1122C161.127 19.3061 161.408 19.6016 161.608 19.9986C161.808 20.3925 161.908 20.8911 161.908 21.4943V26H160.818V21.5682C160.818 21.0111 160.674 20.5772 160.384 20.2663C160.095 19.9524 159.698 19.7955 159.193 19.7955C158.845 19.7955 158.535 19.8709 158.261 20.0217C157.99 20.1725 157.776 20.3925 157.619 20.6818C157.462 20.9711 157.384 21.322 157.384 21.7344ZM173.907 16.5455H175.052V22.8054C175.052 23.4517 174.9 24.0288 174.595 24.5366C174.293 25.0413 173.867 25.4399 173.316 25.7322C172.765 26.0215 172.119 26.1662 171.377 26.1662C170.636 26.1662 169.989 26.0215 169.438 25.7322C168.887 25.4399 168.46 25.0413 168.155 24.5366C167.853 24.0288 167.703 23.4517 167.703 22.8054V16.5455H168.847V22.7131C168.847 23.1747 168.949 23.5856 169.152 23.9457C169.355 24.3027 169.645 24.5843 170.02 24.7905C170.399 24.9936 170.851 25.0952 171.377 25.0952C171.903 25.0952 172.356 24.9936 172.734 24.7905C173.113 24.5843 173.402 24.3027 173.602 23.9457C173.805 23.5856 173.907 23.1747 173.907 22.7131V16.5455ZM177.191 28.6591V18.9091H178.243V20.0355H178.372C178.452 19.9124 178.563 19.7554 178.705 19.5646C178.849 19.3707 179.056 19.1984 179.323 19.0476C179.594 18.8937 179.96 18.8168 180.422 18.8168C181.019 18.8168 181.545 18.966 182.001 19.2646C182.456 19.5631 182.812 19.9863 183.067 20.5341C183.323 21.0819 183.45 21.7282 183.45 22.473C183.45 23.224 183.323 23.8749 183.067 24.4258C182.812 24.9736 182.458 25.3983 182.006 25.6999C181.553 25.9985 181.031 26.1477 180.441 26.1477C179.985 26.1477 179.62 26.0723 179.346 25.9215C179.073 25.7676 178.862 25.5937 178.714 25.3999C178.566 25.2029 178.452 25.0398 178.372 24.9105H178.28V28.6591H177.191ZM178.262 22.4545C178.262 22.9901 178.34 23.4625 178.497 23.8718C178.654 24.2781 178.883 24.5966 179.185 24.8274C179.486 25.0552 179.856 25.169 180.293 25.169C180.748 25.169 181.128 25.049 181.433 24.8089C181.741 24.5658 181.972 24.2396 182.126 23.8303C182.282 23.4179 182.361 22.9593 182.361 22.4545C182.361 21.956 182.284 21.5066 182.13 21.1065C181.979 20.7034 181.75 20.3848 181.442 20.1509C181.138 19.9139 180.754 19.7955 180.293 19.7955C179.85 19.7955 179.477 19.9078 179.176 20.1325C178.874 20.354 178.646 20.6649 178.492 21.065C178.338 21.462 178.262 21.9252 178.262 22.4545Z" fill="white"/>
<defs>
<filter id="filter0_ii_322_432" x="-2" y="0" width="218" height="39" filterUnits="userSpaceOnUse" color-interpolation-filters="sRGB">
<feFlood flood-opacity="0" result="BackgroundImageFix"/>
<feBlend mode="normal" in="SourceGraphic" in2="BackgroundImageFix" result="shape"/>
<feColorMatrix in="SourceAlpha" type="matrix" values="0 0 0 0 0 0 0 0 0 0 0 0 0 0 0 0 0 0 127 0" result="hardAlpha"/>
<feOffset dx="-2" dy="2"/>
<feGaussianBlur stdDeviation="2"/>
<feComposite in2="hardAlpha" operator="arithmetic" k2="-1" k3="1"/>
<feColorMatrix type="matrix" values="0 0 0 0 0 0 0 0 0 0 0 0 0 0 0 0 0 0 0.5 0"/>
<feBlend mode="normal" in2="shape" result="effect1_innerShadow_322_432"/>
<feColorMatrix in="SourceAlpha" type="matrix" values="0 0 0 0 0 0 0 0 0 0 0 0 0 0 0 0 0 0 127 0" result="hardAlpha"/>
<feOffset dx="4" dy="-4"/>
<feGaussianBlur stdDeviation="2"/>
<feComposite in2="hardAlpha" operator="arithmetic" k2="-1" k3="1"/>
<feColorMatrix type="matrix" values="0 0 0 0 0 0 0 0 0 0 0 0 0 0 0 0 0 0 0.25 0"/>
<feBlend mode="normal" in2="effect1_innerShadow_322_432" result="effect2_innerShadow_322_432"/>
</filter>
<filter id="filter1_ddi_322_432" x="100" y="0" width="118" height="43" filterUnits="userSpaceOnUse" color-interpolation-filters="sRGB">
<feFlood flood-opacity="0" result="BackgroundImageFix"/>
<feColorMatrix in="SourceAlpha" type="matrix" values="0 0 0 0 0 0 0 0 0 0 0 0 0 0 0 0 0 0 127 0" result="hardAlpha"/>
<feOffset dx="2"/>
<feGaussianBlur stdDeviation="2"/>
<feComposite in2="hardAlpha" operator="out"/>
<feColorMatrix type="matrix" values="0 0 0 0 0 0 0 0 0 0 0 0 0 0 0 0 0 0 0.25 0"/>
<feBlend mode="normal" in2="BackgroundImageFix" result="effect1_dropShadow_322_432"/>
<feColorMatrix in="SourceAlpha" type="matrix" values="0 0 0 0 0 0 0 0 0 0 0 0 0 0 0 0 0 0 127 0" result="hardAlpha"/>
<feOffset dx="-2" dy="2"/>
<feGaussianBlur stdDeviation="2"/>
<feComposite in2="hardAlpha" operator="out"/>
<feColorMatrix type="matrix" values="0 0 0 0 0 0 0 0 0 0 0 0 0 0 0 0 0 0 0.5 0"/>
<feBlend mode="normal" in2="effect1_dropShadow_322_432" result="effect2_dropShadow_322_432"/>
<feBlend mode="normal" in="SourceGraphic" in2="effect2_dropShadow_322_432" result="shape"/>
<feColorMatrix in="SourceAlpha" type="matrix" values="0 0 0 0 0 0 0 0 0 0 0 0 0 0 0 0 0 0 127 0" result="hardAlpha"/>
<feOffset dx="2" dy="2"/>
<feGaussianBlur stdDeviation="2"/>
<feComposite in2="hardAlpha" operator="arithmetic" k2="-1" k3="1"/>
<feColorMatrix type="matrix" values="0 0 0 0 0 0 0 0 0 0 0 0 0 0 0 0 0 0 0.25 0"/>
<feBlend mode="normal" in2="shape" result="effect3_innerShadow_322_432"/>
</filter>
</defs>
</svg>
